# xmcd CD database file
#
# Track frame offsets:
#	150
#	12517
#	26081
#	39275
#	50219
#	62257
#	75305
#	92965
#	112676
#	126596
#	140235
#	154732
#	168749
#	187645
#	200655
#	213549
#	224488
#	239210
#	250980
#	263126
#	275644
#
# Disc length: 3872 seconds
#
# Revision: 0
# Processed by: cddbd v1.5.2PL0 Copyright (c) Steve Scherf et al.
# Submitted via: CDex 1.51
#
DISCID=400f1e15
DTITLE=Various Artist - The Dixieland Collection Disc 1
DYEAR=2006
DGENRE=Jazz
TTITLE0=Sidney Bechet and His New Orleans Feetwarmers - I'll Take That New Orleans Music
TTITLE1=Bunk Johnson and His New Orleans Band - When The Saints Go Marching In
TTITLE2=Louis Armstrong and His Dixieland Seven - Mahogany Hall Stomp
TTITLE3=Muggsy Spanier - Dippermouth Blues
TTITLE4=Eddie Condon and His Band - Fidgety Feet
TTITLE5=Bob Crosby's Bob Cats - Who's Sorry Now
TTITLE6=Bobby Hackett and His Orchestra - At Sundown
TTITLE7=George Lewis and His New Orleans Stompers - Climax Rag
TTITLE8=Wild Bill Davison and His Commodores - Muskrat Rumble
TTITLE9=Kid Ory and His Creole Jazz Band - Bill Bailey Won't You Please Come Home
TTITLE10=Bunk Johnson and His New Orleans Band - Darktown Strutters' Ball
TTITLE11=Bob Crosby's Bob Cats - Tin Roof Blues
TTITLE12=Wild Bill Davison and His Commodores - That's A Plenty
TTITLE13=Bix Beiderbecke - At The Jazz Band Ball (Feat. Adrian Rollini and Frank Signorelli
TTITLE14=Miff Mole's Little Molers - Feelin' No Pain
TTITLE15=Friars Society Orchestra -Tiger Rag
TTITLE16=Jelly Roll Morton's Red Hot Peppers - Beale Street Blues
TTITLE17=King Oliver and His Dixie Syncopaters - Sobbin' Blues
TTITLE18=Billy Banks And His Orchestra - Bugle Call Rag
TTITLE19=Johnny Dodds Black Bottom Stompers - New Orleans Stomp
TTITLE20=Frankie Trumbauer And His Orchestra - Clarinet Marmalade
EXTD=YEAR: 2006
EXTT0=
EXTT1=
EXTT2=
EXTT3=
EXTT4=
EXTT5=
EXTT6=
EXTT7=
EXTT8=
EXTT9=
EXTT10=
EXTT11=
EXTT12=
EXTT13=
EXTT14=
EXTT15=
EXTT16=
EXTT17=
EXTT18=
EXTT19=
EXTT20=
PLAYORDER=
